<svg xmlns="http://www.w3.org/2000/svg" version="1.1" xmlns:xlink="http://www.w3.org/1999/xlink" xmlns:svgjs="http://svgjs.dev/svgjs" viewBox="0 0 800 800"><defs><linearGradient x1="50%" y1="0%" x2="50%" y2="100%" id="ssscribble-grad"><stop stop-color="hsl(206, 75%, 49%)" stop-opacity="1" offset="0%"></stop><stop stop-color="hsl(331, 90%, 56%)" stop-opacity="1" offset="100%"></stop></linearGradient></defs><g fill="none" stroke-width="1.5" stroke="url(#ssscribble-grad)" stroke-linecap="round"><path d="M1100.03 297.1C1078.37 329.96 978.24 379.68 840.91 445.84 712.35 513.33 632.98 597.42 619.2 691.85 669.57 776.2 757.14 850.29 849.49 892.91 929.1 892.58 968.37 841.19 963.49 744.99 920.24 646.28 846.9 573.27 759.79 572.15 662.64 661.6 571.53 819.9 492.99 984.96 419.38 1075.41 359.39 1043.86 311.01 900.18 265.38 736.23 226.79 650.2 193.93 708.22 126.97 942.13 162.52 614.23 227.52 729.6 263.99 857.22 290.15 944.49 290.33 963.22 252.14 914.59 173.91 814.8 60.08 696.86 -66.47 573.1 -183.51 470.89 -257.98 395.55 -268.28 338.17 -207.61 300.02 -91.73 270.83 32.9 247.57 126.37 221.86 148.03 189 83.16 156.14 -36.49 117.69 -162.16 78.97 -254.79 46.19 -277.49 24.55 -228.06 24.98 -123.23 43.36 6.41 91.45 127.28 164.56 219.79 231.86 268.43 284.49 276.55 290.06 248.64 228.27 203.32 102.06 156.92 -59.77 108.04 -195.13 75.3 -253.1 61.28 -197.86 55.45 -61.44 65.54 89.48 86.88 160.29 111.44 95.42 141.48 -73.46 174.34 -243.72 207.2 -301.79 241.33 -209.13 278.74 -32.5 319.37 123.87 369.06 174.15 431.84 107.81 502.81 -33.15 589.66 -161.99 689.19 -217.24 786.23 -181.92 878.73 -69.96 949.71 71.8 984.66 211.08 974.98 309.66 916.69 360.64 830.03 368.68 729.86 348.71 649.11 321.32 623.77 283.84 665.17 259.52 770.49 254 908.84 249.8 1035.15 264.25 1100.03 297.1Q1100.03 297.1 1100.03 297.1" opacity="0.50"></path><path d="M1066.03 488.68C1048.81 519.19 961.96 565.25 837.47 623.11 711.64 677.91 619.6 737.25 580.26 790.27 598.36 825.46 659.13 836.13 738.92 810.67 824.26 758.44 887.53 677.42 918.43 588.25 919.25 531.04 887.64 524.39 834.05 590.83 763.14 719.22 686.64 876.52 613.53 1003.04 538.51 1042.97 473.14 975.39 419.51 827.11 366.77 681.9 324.85 615.2 294.34 674.22 248.68 925.69 302.8 575.79 339.8 607.13 346.37 711 334.17 818.04 293.35 890.2 222.46 916.66 123.01 887.17 5.9 818.96 -105.65 722.62 -193.79 621.26 -234.25 530.01 -217.29 442.19 -142.61 372.36 -28.56 319.03 84.15 269.57 164.81 230.63 182.03 200.11 124.3 169.6 17.08 148.96 -100.98 140.87 -198.77 136.65 -241.79 150.96 -222.1 185.9 -148.06 224.27 -38.65 275.38 78.97 324.69 187.46 345.89 267.14 331.59 313.05 265.14 326.01 153 313.93 9.79 289.15 -125.86 251.75 -205.32 218.59 -200.03 196.33 -103.61 175.53 35.42 169 157.67 176.26 192.39 185.24 109.89 205.42 -53.11 235.93 -209.72 266.45 -268.79 305.85 -195.93 354.41 -38.95 404.7 121.11 466.73 206.08 540.42 188.54 615.56 84.39 698.97 -45.53 783.4 -142.16 855.2 -176.84 911.1 -134.03 938.13 -36.84 932.21 92.31 888.71 217.14 811.99 316.41 726.13 388.91 644.08 428.5 592.41 446.19 595.09 446.06 655.48 442.22 765.05 444.97 894.9 444.66 1008.3 458.17 1066.03 488.68Q1066.03 488.68 1066.03 488.68" opacity="0.72"></path><path d="M1032.03 617.01C1018.82 645.17 944.7 676.96 833.93 708.39 714.43 735.44 615.4 753.77 555.95 755.28 544.08 743.1 574.5 706.71 632.02 646.63 707.79 583.97 778.12 519.93 830.15 477.27 864.51 481.04 871.3 538.45 854.69 650.42 820.17 788.91 772.34 920.94 719.46 998.78 660.27 992.16 604.15 898.97 555.58 754.24 506.21 629.79 466.5 581.02 438.33 640.22 410.16 783.2 394.88 932.51 391.13 1016.96 386.58 1004.47 391.46 900.39 401.83 753.5 405.9 615.12 407.35 533.11 398.45 521.79 371.66 575.83 324.42 663.92 253.15 751.78 164.21 825.73 60.48 860.04 -44.61 855.09 -131.46 818.43 -187.13 758.42 -195.91 690.15 -157.11 612.74 -74.11 541.99 34.51 483.91 134.41 425.8 202.82 381.92 216.03 353.75 165.1 325.58 70.22 314.45 -38.63 319.44 -137.55 324.39 -195.77 343.9 -202.31 372.51 -159.88 391.96 -77.6 405.6 24.67 398.86 133.3 360.41 229.05 285.67 302.19 174.82 351.56 50.04 375.97 -71.44 382.28 -154.82 371.97 -172.85 356.17 -116.12 342.5 1.6 324.86 127.85 316.14 215.92 319.02 217.55 321.89 122.26 337.03 -32.73 365.2 -175.72 393.37 -234.96 433.23 -180.51 483.47 -45.2 533.71 110.39 593.67 219.63 660.13 246.92 722.61 189.74 784.8 82.96 838.52 -26.19 875.62 -108.84 891.64 -132.86 879.19 -99.72 842.97 -20.14 780.62 84.32 701.31 190.4 628.36 293.89 571.34 376.67 549.56 437.66 576.74 484.96 650.99 517.87 760.78 543.94 880.51 565.63 981.1 588.84 1032.03 617.01Q1032.03 617.01 1032.03 617.01" opacity="0.92"></path><path d="M998.03 590.58C988.4 616.4 926.33 632.92 829.81 638.48 719.64 641.38 619.1 629.14 545.81 600.18 508.76 568.01 509.2 522.87 539.14 473.31 593.81 439.73 655.58 424.72 712.11 444.03 763.64 504.18 796.7 604.05 810.34 730.49 810.6 851.74 794.94 941.88 768.82 969.11 735.32 924.46 698.34 816.89 662.57 682.75 625.09 580.16 592.33 547.66 566.51 606.22 540.69 735.67 523.03 875.55 511.82 968.8 498.9 985.7 488.91 919.1 477.66 798.64 459.04 660.88 432.18 548.83 392.12 486.87 338.69 481.77 268.56 523.73 183.19 590.07 92.82 670.2 0.45 736.33 -81.1 777.7 -137.93 799.24 -161.53 793.98 -143.4 770 -89.03 732.87 -3.19 689.39 97.01 647.61 183.57 603.03 240.4 566.17 250.03 540.35 205.55 514.53 122.75 500.96 24.39 496.85 -71.99 489.94 -140.08 486.45 -167.93 478.84 -155.09 458.08 -103.05 420.83 -24.74 359.51 70.14 278.35 165.88 175.15 251.3 61.18 324.56 -39 378.64 -111.58 415.08 -133.38 436.62 -98.31 447.24 -9.44 452.99 109.39 452.18 210.94 453.62 262.85 461.25 236.02 467.63 132.82 482.96 -12.27 508.78 -141.73 534.6 -200.33 569.69 -162.62 612 -50.08 653.06 94.02 698.59 216.3 744.15 279.89 783.14 271.6 815.04 204.62 833.29 110.25 836.65 10.69 819.64 -58.56 780.22 -84.88 728.64 -70.35 663.51 -18.27 595.51 55.09 544.08 144.44 515.2 232.11 521.28 309.02 568.06 382.73 650.85 441.94 757.2 487.73 865.52 530.86 953.55 564.76 998.03 590.58Q998.03 590.58 998.03 590.58" opacity="0.36"></path><path d="M964.03 428.25C957.54 451.72 906.71 460.86 824.57 456.64 726.1 452.59 629.02 436.35 548.47 411.69 479.97 383.95 516.97 402.22 584.09 491.94 635.26 584.71 678.01 695.42 708.29 805.82 732.08 890.04 741.84 931.54 739.58 913.84 731.67 842.82 715.84 731.84 695.34 613.85 673.12 533.24 649.47 515.13 626 572.23 602.53 688.29 580.35 817.12 558.3 914.42 534.53 954.87 507.66 924.31 474.9 837.63 436.48 717.89 388.06 598.01 328.1 503.96 261.64 447.5 185.19 434.57 103.26 455.73 26.22 505.24 -43.29 563.29 -94.98 615.97 -121.15 666.13 -116.55 698.47 -78.09 712.67 -14.73 718.13 68.97 709.97 158.38 693.14 231.47 673.29 277.54 650.35 284.03 626.88 245.66 603.4 174.58 580.51 87.62 556.1 -3.03 528.66 -75.75 494.12 -119.15 447.98 -131.46 393.11 -109.05 322.12 -59.03 235.78 12.19 146.92 93.97 55.18 176.07 -25.09 256.73 -77.02 326.66 -91.91 383.56 -59.9 430.91 9.71 466.55 108.54 493.59 211.07 514.46 280.55 531.95 297.74 549.37 248.24 565.14 141.88 584.08 8.29 607.55 -107.76 631.02 -164.86 657.92 -142 686.41 -52.33 713.25 74.71 738.46 199.05 758.27 287.27 771.92 322.18 774.94 301.73 763.77 241.95 743.05 155.99 706.82 73.11 656.92 11.11 605.59 -28.09 551.63 -33.9 504.84 -12.27 479.25 30.99 477.89 87.52 507.39 147 567.99 212.34 654.06 271.27 753.77 319.59 849.79 368.07 925.63 404.77 964.03 428.24Q964.03 428.25 964.03 428.25" opacity="0.91"></path><path d="M929.96 245.65C926.36 266.78 886.05 278.5 818.16 282.84 733.11 289.13 643.71 292.12 562.14 296.85 495.27 310.31 449.85 333.89 426.76 373.56 425.73 428.82 441.52 503.39 467.52 594.4 504.01 688.14 540.47 779.53 571.86 852.18 603.22 890.73 625.2 886.75 636.97 835.57 646.14 751.15 646.07 646.5 637.9 548.5 628.64 489.09 613.16 483.3 592.04 538.12 570.91 640.98 545.14 757.46 514.56 854.34 482.9 911.75 444.54 912.82 398.76 862.32 350.37 772.79 293.6 665.48 229.69 562.38 165.74 474.95 98.95 416.94 34.77 389.26 -18.91 389.89 -59.74 410.76 -80.71 441.18 -79.61 481.85 -53.14 518.31 -1.75 544.99 64.32 570.64 141.7 583.76 218.6 584.42 278.33 583.74 314.36 572.62 317.96 551.49 285.1 530.37 225.08 500.25 149.98 461.09 67.66 420.6 -4.75 369.06 -57.42 306.79 -88.57 243.51 -91.74 172.26 -69.76 99.03 -26.78 36.05 31.71 -15.15 97.83 -43.48 169.99 -43.5 239.69 -10.54 302.68 54.88 362.38 135.97 413.05 224.34 454.9 298.4 492.91 333.42 524.48 320.34 551.22 254.81 576.65 149.78 599.63 29.03 620.76 -73.83 641.88 -128.68 660.15 -118.64 674.55 -51.09 687.65 55.05 694.51 171.73 693.12 271.65 687.88 338.32 672 361.26 644.85 344.71 614.42 294.05 575.05 227.71 530.58 161.66 492.15 98.33 458.7 54.09 437.72 31.38 437.73 24.28 459.84 35.48 506.48 58.63 574.63 90.51 659.08 125.95 749.55 159.5 832.8 195 897.1 224.53 929.96 245.65Q929.96 245.65 929.96 245.65" opacity="0.69"></path><path d="M896.02 173.26C894.49 192.04 863.37 211.17 808.89 231.89 738.06 254.54 659.61 282.31 582.75 318.04 512.49 359.61 455.56 412.79 414.62 478.19 389.9 548.21 380.48 626.14 382.84 705.14 396.87 773 416.07 825.76 436.01 852.5 460.05 848.36 480 809.99 493.53 739.98 507.28 654.64 513.32 564 511.06 488.01 508.53 448.18 498.03 452.5 479.25 504.27 460.47 594.18 434.31 697.31 401.42 789.77 368.27 857.24 328.07 883.26 281.78 866.62 235.7 812.93 184.83 732.95 131.85 642.22 82.97 549.23 36.81 468.51 -1.82 406.55 -35.21 351.25 4.96 343.37 81.5 361.68 144.6 378.42 212.36 389.42 275.95 391.67 323.17 394.46 350.49 387.05 352.02 368.27 324.66 349.49 275.33 320.24 212.39 282.03 140.4 244.37 72.35 199.21 16.18 149.92 -27.05 105.11 -49.82 62.11 -52.2 27.39 -37.15 6.46 -5.76 2.88 36.82 21.88 88.93 59.23 144.78 117.68 199.87 191.13 256.65 262.3 308.77 325.44 354.44 365.37 399.06 368.25 437.11 331.54 468.39 256.82 499.07 157.11 523.95 50.18 542.73 -39.72 561.51 -91.49 573.3 -92 578.04 -44.93 582.17 38.29 578.29 139.62 566.21 238.73 553.08 322.5 531.89 377.71 504.05 401.4 477.9 394.21 449.01 363.72 421.5 320.47 403.52 266.08 394.38 215.11 398.88 174.03 420.81 137.57 460.41 115.31 517.41 106.29 587.34 103.1 666.07 109.48 745.31 122.25 815.5 136.94 868.64 154.47 896.02 173.25Q896.02 173.26 896.02 173.26" opacity="0.59"></path><path d="M862.02 262.47C840.36 295.33 739.89 359.33 608.18 453.95 479.72 552.24 388.59 671.98 341.79 774.21 333.28 815.24 344.91 769.34 353.99 634.08 370.47 491.28 366.34 412.19 333.48 470.26 300.62 640.52 242.14 796.34 168.71 846.2 102.68 780.38 39.77 637.14 5.2 492.12 8.93 369.73 65.21 300.06 169.59 266.34 277.21 254.03 364.36 240.38 386.02 207.51 321.15 174.65 208.16 125.7 98.06 81.06 12.11 57.83 -14.02 76.22 12.13 155.53 75.41 257.48 157.35 365.87 233.08 407.61 312.78 333.66 373.12 164.52 405.98 -5.73 438.84 -63.8 441.11 28.6 418.36 195.49 399.58 354.84 368.92 435.58 348.71 437.63 365.62 378.47 426.62 310.01 536.65 268.67 670.85 231 797.15 229.61 862.02 262.47Q862.02 262.47 862.02 262.47" opacity="0.21"></path><path d="M828.03 449.71C814.81 477.87 740.11 536.48 634.28 613.48 518.43 681.13 418.81 743.23 348.3 767.49 302.22 742.67 278.25 655.86 263.32 526.55 256.88 420.5 243.38 377.03 215.22 436.23 187.05 579.21 146.88 722.43 104.51 799.9 70.63 797.04 50.64 717.06 59.8 605.77 93.4 480.95 163.14 379.06 258.34 309.38 343.52 251.55 406.81 212.21 420.03 184.04 369.12 155.87 279.84 141.55 185.31 150.57 96.56 171.43 45.06 229.37 33.54 317.26 49.72 391.64 90.45 441.75 137.81 423.97 192.36 325.88 238.52 171.26 266.68 28.27 294.86 -30.96 302.37 23.9 296.64 150.58 298.08 300.55 301.3 417.24 322.03 478.98 370.46 491.64 451.84 473.51 561.23 454.66 676.4 426.47 777.1 421.53 828.03 449.7Q828.03 449.71 828.03 449.71" opacity="0.58"></path><path d="M794.03 601.53C787.54 625 735.95 658.57 657.41 691.08 563.66 712.68 472.12 713.53 395.96 678.58 330.59 619.32 282.74 527.21 248.7 425.97 220.61 359.47 196.6 345.13 173.13 402.23 149.65 518.29 128.95 641.71 116.36 729.42 109.72 771.19 120.94 753.4 155.54 696.73 200.94 612.96 267.58 526.55 344.13 456.36 405.46 386.64 447.54 338.06 454.03 314.59 415.66 291.11 349.06 294.98 274.26 324.02 194.8 353.53 134.96 403.31 101.61 456.31 83.73 482.22 88.49 475.12 106.94 416.15 131.58 311.25 158.95 178.34 182.42 62.27 205.89 5.14 223.25 28.97 239.28 112.67 261.5 231.11 293.37 348.12 342.01 438.16 406.12 503.87 490.85 539.66 587.52 558.73 679.52 566.9 755.64 578.05 794.03 601.52Q794.03 601.53 794.03 601.53" opacity="0.42"></path><path d="M760 609.59C758.54 628.37 726.6 636.78 674.2 631.14 607.35 619.98 535.81 586.89 469.91 531.34 405.47 472.32 351.7 402.56 310.83 340.27 272.44 309.71 243.53 316.44 224.76 368.18 205.98 458.09 199.1 556.75 204.95 639.2 213.28 702.1 237.75 728.24 277.57 722.65 318.86 694.7 370.49 652 423.58 609.28 462.21 561.7 486.54 524.76 488 505.98 460.57 487.21 414.56 488.36 361.01 503.4 299.08 513.58 245.41 526.98 206.89 530.32 173.78 511.3 157.38 465.24 155.83 388.57 157.63 292.36 169.05 186.09 187.83 96.18 206.61 44.44 230.97 45.32 261.71 89.64 295.8 165.7 341.5 255.38 399.23 339.01 462.36 419.17 535.94 481.56 611.64 525.27 678.95 563.44 732.57 590.81 760 609.59Q760 609.59 760 609.59" opacity="0.92"></path><path d="M726.03 468.25C712.81 496.42 636.89 456.54 548.99 371.21 451.5 308.08 376.62 275.03 348.45 334.23 320.28 477.23 344.17 608.17 404.74 665.28 455.73 679.94 508.81 650.03 522.03 621.87 471.12 593.7 392.98 572.6 332.87 521.03 272.15 427 252.71 273.23 280.88 130.23 309.04 71.03 379.48 126.91 477.12 226.96 574.15 349.2 675.12 440.08 726.03 468.25Q726.03 468.25 726.03 468.25" opacity="0.70"></path><path d="M692.03 278.18C660.27 315.74 531.14 246.64 493.59 300.22 456.03 497.74 524.27 617.03 556.03 579.47 475.93 541.92 385.38 361.74 422.94 164.22 460.49 110.64 611.93 240.63 692.03 278.18Q692.03 278.18 692.03 278.18" opacity="0.45"></path></g></svg>