<svg xmlns="http://www.w3.org/2000/svg" version="1.1" xmlns:xlink="http://www.w3.org/1999/xlink" xmlns:svgjs="http://svgjs.dev/svgjs" viewBox="0 0 2400 800" opacity="1"><defs><linearGradient x1="50%" y1="0%" x2="50%" y2="100%" id="sssurf-grad"><stop stop-color="hsl(208, 77%, 50%)" stop-opacity="1" offset="0%"></stop><stop stop-color="hsl(208, 74%, 93%)" stop-opacity="1" offset="100%"></stop></linearGradient></defs><g fill="url(#sssurf-grad)" transform="matrix(1,0,0,1,0,-219.29483032226562)"><path d="M 0 335.29474579215605 Q 600 516.4495066699307 800 299.58962733928195 Q 1400 475.7581706594673 1600 336.2642418224395 Q 2200 571.2053536535583 2400 327.44722727957077 L 2400 800 L 0 800 L 0 323.48924309572305 Z" transform="matrix(1,0,0,1,0,49)" opacity="0.05"></path><path d="M 0 335.29474579215605 Q 600 516.4495066699307 800 299.58962733928195 Q 1400 475.7581706594673 1600 336.2642418224395 Q 2200 571.2053536535583 2400 327.44722727957077 L 2400 800 L 0 800 L 0 323.48924309572305 Z" transform="matrix(1,0,0,1,0,98)" opacity="0.16"></path><path d="M 0 335.29474579215605 Q 600 516.4495066699307 800 299.58962733928195 Q 1400 475.7581706594673 1600 336.2642418224395 Q 2200 571.2053536535583 2400 327.44722727957077 L 2400 800 L 0 800 L 0 323.48924309572305 Z" transform="matrix(1,0,0,1,0,147)" opacity="0.26"></path><path d="M 0 335.29474579215605 Q 600 516.4495066699307 800 299.58962733928195 Q 1400 475.7581706594673 1600 336.2642418224395 Q 2200 571.2053536535583 2400 327.44722727957077 L 2400 800 L 0 800 L 0 323.48924309572305 Z" transform="matrix(1,0,0,1,0,196)" opacity="0.37"></path><path d="M 0 335.29474579215605 Q 600 516.4495066699307 800 299.58962733928195 Q 1400 475.7581706594673 1600 336.2642418224395 Q 2200 571.2053536535583 2400 327.44722727957077 L 2400 800 L 0 800 L 0 323.48924309572305 Z" transform="matrix(1,0,0,1,0,245)" opacity="0.47"></path><path d="M 0 335.29474579215605 Q 600 516.4495066699307 800 299.58962733928195 Q 1400 475.7581706594673 1600 336.2642418224395 Q 2200 571.2053536535583 2400 327.44722727957077 L 2400 800 L 0 800 L 0 323.48924309572305 Z" transform="matrix(1,0,0,1,0,294)" opacity="0.58"></path><path d="M 0 335.29474579215605 Q 600 516.4495066699307 800 299.58962733928195 Q 1400 475.7581706594673 1600 336.2642418224395 Q 2200 571.2053536535583 2400 327.44722727957077 L 2400 800 L 0 800 L 0 323.48924309572305 Z" transform="matrix(1,0,0,1,0,343)" opacity="0.68"></path><path d="M 0 335.29474579215605 Q 600 516.4495066699307 800 299.58962733928195 Q 1400 475.7581706594673 1600 336.2642418224395 Q 2200 571.2053536535583 2400 327.44722727957077 L 2400 800 L 0 800 L 0 323.48924309572305 Z" transform="matrix(1,0,0,1,0,392)" opacity="0.79"></path><path d="M 0 335.29474579215605 Q 600 516.4495066699307 800 299.58962733928195 Q 1400 475.7581706594673 1600 336.2642418224395 Q 2200 571.2053536535583 2400 327.44722727957077 L 2400 800 L 0 800 L 0 323.48924309572305 Z" transform="matrix(1,0,0,1,0,441)" opacity="0.89"></path><path d="M 0 335.29474579215605 Q 600 516.4495066699307 800 299.58962733928195 Q 1400 475.7581706594673 1600 336.2642418224395 Q 2200 571.2053536535583 2400 327.44722727957077 L 2400 800 L 0 800 L 0 323.48924309572305 Z" transform="matrix(1,0,0,1,0,490)" opacity="1.00"></path></g></svg>