<svg xmlns="http://www.w3.org/2000/svg" version="1.1" xmlns:xlink="http://www.w3.org/1999/xlink" viewBox="0 0 700 700" style="overflow: hidden; display: block;" width="700" height="700"><defs></defs><g id="two-0" transform="matrix(1 0 0 1 0 0)" opacity="1"><path transform="matrix(1 0 0 1 350 350)" id="two-2" d="M 295.246787 86.692278 C 273.840435 110.805291 239.867052 122.028586 210.460677 135.254864 C 187.537278 145.565257 157.704614 143.631191 138.284655 159.589 C 119.619309 174.926727 114.079846 202.251644 101.890924 223.110004 C 83.598165 254.41359 81.790898 320.364922 45.64837 317.491387 C -14.020804 312.747351 34.733207 169.696877 -21.417055 148.958889 C -42.881669 141.031358 -60.459443 176.198543 -82.775812 181.253744 C -105.919475 186.496347 -131.444944 183.507517 -154.630413 178.453009 C -180.786007 172.751004 -219.098802 172.189869 -229.649661 147.586875 C -242.270982 118.155879 -192.863468 89.101004 -194.538705 57.121717 C -195.64752 35.955087 -212.33822 17.759938 -223.907155 0 C -243.873843 -30.651666 -304.020906 -51.14313 -293.59598 -86.207558 C -283.113435 -121.465791 -218.363505 -100.445766 -187.546223 -120.528639 C -170.037788 -131.93846 -154.084514 -148.776482 -145.377105 -167.774123 C -129.168228 -203.138306 -160.8951 -261.016502 -129.995616 -284.650693 C -105.972037 -303.025689 -64.507421 -288.911949 -39.165562 -272.402466 C -5.600725 -250.535953 -15.471507 -173.820089 24.286208 -168.914291 C 68.15163 -163.501634 76.521489 -254.43631 119.949253 -262.652229 C 147.67101 -267.896794 188.154713 -255.445333 198.653012 -229.257799 C 217.44195 -182.389638 140.117017 -139.19604 138.086546 -88.742835 C 137.472365 -73.481666 141.704249 -55.259487 152.932022 -44.904894 C 197.726072 -3.594464 304.884836 -54.549681 332.039777 -0.000001 C 345.889497 27.821742 315.879345 63.450901 295.246787 86.692278 Z " fill="hsl(265, 55%, 20%)" stroke="undefined" stroke-width="1" stroke-opacity="1" fill-opacity="1" visibility="visible" stroke-linecap="butt" stroke-linejoin="miter" stroke-miterlimit="4"></path></g></svg>