<svg xmlns="http://www.w3.org/2000/svg" version="1.1" xmlns:xlink="http://www.w3.org/1999/xlink" viewBox="0 0 700 700" style="overflow: hidden; display: block;" width="700" height="700"><defs><linearGradient id="two-7" x1="350" y1="-350" x2="350" y2="350" spreadMethod="pad" gradientUnits="userSpaceOnUse"><stop offset="0%" stop-color="hsl(1.4, 100%, 67%)" stop-opacity="1"></stop><stop offset="100%" stop-color="hsl(167, 52%, 78%)" stop-opacity="1"></stop></linearGradient></defs><g id="two-0" transform="matrix(1 0 0 1 0 0)" opacity="1"><path transform="matrix(1 0 0 1 350 350)" id="two-15" d="M 113.386691 30.381872 C 104.201559 90.656289 257.876195 86.872868 256.023009 147.814953 C 255.245936 173.369046 207.563735 172.093377 193.331579 193.331579 C 174.49292 221.443922 201.700128 283.706293 169.157485 292.989359 C 114.37203 308.617378 102.239381 162.412302 46.070271 171.936595 C 12.155927 177.687268 23.203619 240.04697 0 265.44077 C -22.17234 289.705947 -54.56801 329.679706 -85.026213 317.322144 C -122.159222 302.256466 -83.305047 223.838348 -115.312189 199.726569 C -138.199512 182.484977 -179.793209 220.083375 -202.112371 202.11237 C -222.254178 185.894534 -212.118728 150.570793 -216.721659 125.124307 C -220.542111 104.003612 -216.667948 79.406844 -227.74929 61.025238 C -244.792013 32.754959 -296.881204 31.418189 -307.008415 0 C -315.056445 -24.967831 -305.001032 -60.167317 -284.200087 -76.151184 C -246.335343 -105.247221 -164.836189 -40.060283 -139.562688 -80.576556 C -118.918543 -113.671448 -189.230352 -149.278573 -188.272615 -188.272615 C -187.607958 -215.334009 -172.005844 -244.387528 -150.840107 -261.26273 C -130.691572 -277.326928 -99.366744 -289.376699 -75.166316 -280.524509 C -35.085551 -265.863508 -42.677102 -175.005183 -0.000001 -175.28394 C 44.223031 -175.572794 32.282535 -287.417148 76.457932 -285.344889 C 105.734211 -283.971544 92.98711 -219.164666 120.078019 -207.981231 C 158.846311 -191.97724 208.086938 -266.510655 242.419482 -242.419483 C 269.050582 -223.732419 255.537381 -176.076474 249.577504 -144.09364 C 243.667355 -112.37767 220.132844 -85.515761 207.835663 -55.689399 C 200.402844 -37.661367 201.547339 -14.097864 188.074886 -0.000001 C 169.691517 19.236749 117.395213 4.077262 113.386691 30.381872 Z " fill="hsl(265, 55%, 20%)" stroke="undefined" stroke-width="1" stroke-opacity="1" fill-opacity="1" visibility="visible" stroke-linecap="butt" stroke-linejoin="miter" stroke-miterlimit="4"></path></g></svg>