<svg xmlns="http://www.w3.org/2000/svg" version="1.1" xmlns:xlink="http://www.w3.org/1999/xlink" viewBox="0 0 700 700" style="overflow: hidden; display: block;" width="700" height="700"><defs><linearGradient id="two-7" x1="350" y1="-350" x2="350" y2="350" spreadMethod="pad" gradientUnits="userSpaceOnUse"><stop offset="0%" stop-color="hsl(1.4, 100%, 67%)" stop-opacity="1"></stop><stop offset="100%" stop-color="hsl(167, 52%, 78%)" stop-opacity="1"></stop></linearGradient></defs><g id="two-0" transform="matrix(1 0 0 1 0 0)" opacity="1"><path transform="matrix(1 0 0 1 350 350)" id="two-545" d="M 259.198129 27.242821 C 263.419501 35.256599 257.046979 47.193928 250.262558 53.194948 C 237.036038 64.894195 201.219538 46.960807 197.919458 64.30793 C 189.815473 106.90714 325.77218 97.583151 307.45869 136.889428 C 286.555714 181.753525 188.339609 51.586413 163.602667 94.456043 C 138.775118 137.482695 302.916703 158.698012 272.727393 198.148049 C 234.620691 247.944178 156.747103 57.172055 110.39203 99.39743 C 96.670719 111.896332 126.80314 133.320421 135.025135 149.960605 C 153.932598 188.226701 208.010828 225.653219 192.967258 265.596646 C 188.937809 276.295568 171.837365 281.867966 160.870956 278.636669 C 105.34499 262.275721 112.255679 160.202785 60.124129 135.041006 C 55.379186 132.750815 47.574395 131.957421 44.186681 135.992623 C 10.774455 175.79087 82.447201 244.591353 62.158125 292.430989 C 57.436642 303.563779 44.560811 318.525684 33.079427 314.729732 C -4.688075 302.243117 39.748887 200.342766 0 198.817724 C -27.703039 197.754844 -2.74842 269.224517 -29.176809 277.598786 C -39.11267 280.747126 -46.726066 265.769112 -55.201543 259.702839 C -63.062654 254.076294 -73.584184 250.411267 -78.697931 242.207326 C -86.892946 229.060133 -72.284192 199.909622 -87.288935 196.054156 C -131.349637 184.732768 -134.927711 324.67109 -174.724678 302.632019 C -209.966095 283.115754 -108.811502 216.824982 -135.810013 186.926445 C -145.065834 176.676417 -166.347036 205.386714 -176.627901 196.165156 C -186.864397 186.983395 -162.037182 164.36337 -171.885242 154.766166 C -184.061473 142.900096 -214.802818 176.896799 -222.903026 161.948527 C -236.887966 136.140461 -148.832002 119.800625 -164.419276 94.927513 C -187.297668 58.419728 -271.640461 168.080885 -290.375679 129.283581 C -305.564335 97.830577 -232.64551 88.065643 -205.067885 66.630594 C -192.315099 56.718334 -162.551324 51.002971 -167.256066 35.551374 C -175.837375 7.368125 -252.471033 56.153315 -256.112615 26.91852 C -259.362022 0.832132 -190.726926 24.476722 -181.137957 0 C -178.405937 -6.973734 -186.192207 -14.961991 -191.605196 -20.138518 C -213.110302 -40.70419 -276.428899 -28.510411 -273.389414 -58.110714 C -271.487223 -76.635379 -222.184526 -52.734379 -218.44528 -70.977174 C -211.005201 -107.275364 -305.359416 -100.637965 -308.881738 -137.523011 C -310.018449 -149.426412 -293.501944 -156.51205 -284.28842 -164.133996 C -274.874485 -171.921735 -265.072611 -183.090618 -252.871269 -183.721731 C -213.758991 -185.744809 -176.214032 -106.473181 -146.220523 -131.657551 C -134.338769 -141.634193 -154.028038 -162.219312 -159.225377 -176.837696 C -171.528833 -211.443228 -234.016742 -259.76482 -202.865711 -279.220697 C -149.413293 -312.605264 -124.037887 -177.73016 -77.85491 -134.84866 C -69.826209 -127.393906 -60.329219 -108.951979 -51.216394 -115.033905 C 1.655216 -150.320571 -155.409525 -274.405061 -98.082792 -301.867792 C -74.816508 -313.013651 -66.210646 -260.298691 -50.912726 -239.525541 C -40.780143 -225.766438 -29.079932 -212.35685 -20.751409 -197.436465 C -12.107619 -181.951285 -17.565795 -150.303267 -0.000001 -147.864255 C 9.396275 -146.559582 13.201407 -162.115717 17.904925 -170.353987 C 36.793507 -203.437572 21.26567 -282.379621 59.129943 -278.184514 C 81.153642 -275.744437 53.93073 -228.168139 68.797612 -211.737281 C 74.029627 -205.954866 87.164273 -212.34509 91.72632 -206.02069 C 102.255547 -191.423941 71.121805 -158.992451 87.550133 -151.64128 C 128.05685 -133.515769 145.509738 -275.746066 180.665062 -248.664126 C 226.304462 -213.505766 89.671539 -157.255151 89.719719 -99.643844 C 89.723653 -94.939795 92.583713 -88.552421 97.165882 -87.488554 C 166.494052 -71.392268 237.221633 -260.324297 279.331943 -202.946537 C 319.186498 -148.642373 90.45592 -129.998696 123.389168 -71.23877 C 147.815778 -27.656499 246.842886 -164.590267 267.083109 -118.913062 C 287.676375 -72.439123 118.300056 -91.873195 132.94083 -43.195095 C 142.964426 -9.86833 207.51174 -67.145191 238.138426 -50.617886 C 246.182656 -46.276918 255.140988 -34.910915 251.676245 -26.45224 C 239.811697 2.513358 160.382077 -31.300662 160.586841 -0.000001 C 160.807692 33.759999 243.463705 -2.627135 259.198129 27.242821 Z " fill="hsl(265, 55%, 20%)" stroke="undefined" stroke-width="1" stroke-opacity="1" fill-opacity="1" visibility="visible" stroke-linecap="butt" stroke-linejoin="miter" stroke-miterlimit="4"></path></g></svg>