<svg xmlns="http://www.w3.org/2000/svg" version="1.1" xmlns:xlink="http://www.w3.org/1999/xlink" viewBox="0 0 700 700" style="overflow: hidden; display: block;" width="700" height="700"><defs><linearGradient id="two-7" x1="350" y1="-350" x2="350" y2="350" spreadMethod="pad" gradientUnits="userSpaceOnUse"><stop offset="0%" stop-color="hsl(1.4, 100%, 67%)" stop-opacity="1"></stop><stop offset="100%" stop-color="hsl(167, 52%, 78%)" stop-opacity="1"></stop></linearGradient></defs><g id="two-0" transform="matrix(1 0 0 1 0 0)" opacity="1"><path transform="matrix(1 0 0 1 350 350)" id="two-555" d="M 292.548176 30.748052 C 309.68634 41.190946 345.416051 53.300497 337.47864 71.733299 C 317.712216 117.636255 203.571764 13.628032 186.441736 60.578592 C 175.169378 91.474252 280.72987 88.989238 267.205799 118.967686 C 253.255952 149.889941 186.546057 68.701508 166.922167 96.372558 C 156.65069 110.856053 203.322957 126.085982 195.442992 141.997645 C 190.410662 152.159205 166.273018 135.015079 161.228006 145.170348 C 142.302931 183.265248 262.483876 228.053937 229.280286 254.641555 C 173.407296 299.38159 132.748494 60.938961 74.560822 102.624168 C 26.783598 136.851409 199.354603 228.41788 151.879369 263.062784 C 129.770988 279.196307 112.78354 223.445924 91.709508 205.982928 C 81.568704 197.579751 69.321993 191.229449 59.342002 182.635902 C 49.958829 174.556263 44.592817 151.150982 33.116358 155.800216 C -13.774704 174.796274 49.84167 261.58649 32.488787 309.110161 C 26.754044 324.81568 16.331222 351.571945 0 347.988407 C -32.522431 340.852054 -8.411737 278.647724 -26.337977 250.589108 C -31.636938 242.295036 -39.4852 229.789579 -49.190769 231.42437 C -85.255421 237.499045 -72.291335 340.48643 -106.094855 326.526385 C -169.03718 300.53271 5.87806 154.222952 -56.225158 126.283771 C -112.151229 101.123583 -102.441606 296.470345 -161.374189 279.508293 C -178.618889 274.5449 -150.695487 237.645502 -163.59976 225.17575 C -172.834714 216.251761 -193.617221 234.175847 -202.514629 224.915281 C -212.554128 214.46601 -197.126397 194.977189 -201.052609 181.028581 C -203.583862 172.035825 -208.029649 161.062467 -216.615689 157.38051 C -241.708941 146.619752 -287.635647 197.316224 -298.037824 172.072217 C -322.713188 112.190037 -111.108582 120.354032 -136.411315 60.73423 C -154.00232 19.285259 -232.835804 112.977312 -270.151003 87.777381 C -278.273814 82.291835 -270.355502 66.875356 -275.565836 58.573326 C -283.244495 46.338323 -313.130403 46.936191 -310.852676 32.671932 C -305.390549 -1.534624 -243.791564 11.446041 -211.097352 0 C -195.670293 -5.400918 -176.438372 -5.94598 -164.689642 -17.309579 C -160.515695 -21.346701 -157.123001 -27.841522 -157.994205 -33.582705 C -159.555168 -43.869359 -170.677243 -50.577964 -178.100358 -57.868315 C -196.398993 -75.839673 -249.156967 -82.85722 -238.851166 -106.343391 C -228.831556 -129.177354 -187.046653 -84.848674 -164.177629 -94.787999 C -158.177379 -97.395824 -153.069199 -104.638768 -153.027648 -111.181095 C -152.862211 -137.229801 -184.824483 -153.768806 -196.589418 -177.009907 C -207.688805 -198.936247 -239.085245 -228.940369 -222.30904 -246.899202 C -209.515037 -260.595109 -186.456673 -232.730171 -167.798853 -230.955307 C -157.020267 -229.929972 -145.480486 -230.864557 -135.13657 -234.063404 C -126.196729 -236.828042 -119.61902 -248.821885 -110.319465 -247.781575 C -91.89132 -245.720079 -85.262823 -202.768845 -68.36396 -210.402633 C -34.014057 -225.919644 -100.405151 -303.776859 -68.999965 -324.61931 C -58.075527 -331.869453 -44.009894 -315.2156 -32.475291 -308.981753 C -21.156008 -302.864276 -7.991225 -297.489182 -0.000001 -287.405034 C 13.85259 -269.924411 19.478089 -245.981737 23.548857 -224.052412 C 30.029588 -189.140553 -10.178716 -122.825779 24.75398 -116.458321 C 94.891393 -103.67382 32.77615 -328.585085 103.239073 -317.737198 C 127.662268 -313.977205 98.77376 -265.862695 108.199508 -243.020076 C 111.900287 -234.051507 119.085713 -225.666595 127.5063 -220.847391 C 135.956909 -216.011005 151.511715 -223.770816 156.506674 -215.412958 C 167.937997 -196.285399 118.212098 -164.459338 136.02388 -151.069825 C 175.285281 -121.556159 227.02561 -270.507959 259.719261 -233.852274 C 293.677768 -195.778448 130.07675 -157.564534 159.660733 -116.000313 C 185.509989 -79.683223 261.331613 -202.284118 285.587457 -164.883996 C 303.085988 -137.902985 206.980651 -127.086957 216.337908 -96.319843 C 221.258754 -80.139865 250.232688 -90.647029 266.663909 -86.644357 C 286.358348 -81.84676 325.581647 -89.470305 325.560153 -69.199947 C 325.49257 -5.462488 137.818819 -78.432168 140.252796 -14.741163 C 141.146272 8.638814 187.132112 -6.515841 209.603549 -0.000001 C 237.640644 8.129664 267.61954 15.558146 292.548176 30.748052 Z " fill="hsl(265, 55%, 20%)" stroke="undefined" stroke-width="1" stroke-opacity="1" fill-opacity="1" visibility="visible" stroke-linecap="butt" stroke-linejoin="miter" stroke-miterlimit="4"></path></g></svg>