<svg xmlns="http://www.w3.org/2000/svg" version="1.1" xmlns:xlink="http://www.w3.org/1999/xlink" xmlns:svgjs="http://svgjs.dev/svgjs" viewBox="0 0 800 800"><g shape-rendering="crispEdges"><g transform="translate(0 0)"><use xlink:href="#SvgjsSymbol1000" x="75" y="112.5" fill="hsl(286, 100%, 51%)"></use><use xlink:href="#SvgjsSymbol1001" x="75" y="112.5" fill="#fd59ff"></use><use xlink:href="#SvgjsSymbol1002" x="75" y="112.5" fill="#8e00cb"></use></g><g transform="translate(0 0)"><use xlink:href="#SvgjsSymbol1000" x="725" y="50" fill="hsl(286, 100%, 51%)"></use><use xlink:href="#SvgjsSymbol1001" x="725" y="50" fill="#fd59ff"></use><use xlink:href="#SvgjsSymbol1002" x="725" y="50" fill="#8e00cb"></use></g><g><use xlink:href="#SvgjsSymbol1000" x="562.5" y="287.5" fill="hsl(286, 100%, 51%)"></use><use xlink:href="#SvgjsSymbol1002" x="562.5" y="287.5" fill="#8e00cb"></use></g><g><use xlink:href="#SvgjsSymbol1000" x="137.5" y="337.5" fill="hsl(286, 100%, 51%)"></use><use xlink:href="#SvgjsSymbol1002" x="137.5" y="337.5" fill="#8e00cb"></use></g><g><use xlink:href="#SvgjsSymbol1000" x="650" y="637.5" fill="hsl(286, 100%, 51%)"></use><use xlink:href="#SvgjsSymbol1001" x="650" y="637.5" fill="#fd59ff"></use></g><g><use xlink:href="#SvgjsSymbol1001" x="325" y="575" fill="#fd59ff"></use><use xlink:href="#SvgjsSymbol1002" x="325" y="575" fill="#8e00cb"></use></g><g><use xlink:href="#SvgjsSymbol1000" x="112.5" y="650" fill="hsl(286, 100%, 51%)"></use><use xlink:href="#SvgjsSymbol1001" x="112.5" y="650" fill="#fd59ff"></use><use xlink:href="#SvgjsSymbol1002" x="112.5" y="650" fill="#8e00cb"></use></g><g><use xlink:href="#SvgjsSymbol1001" x="400" y="137.5" fill="#fd59ff"></use><use xlink:href="#SvgjsSymbol1002" x="400" y="137.5" fill="#8e00cb"></use></g></g><symbol id="SvgjsSymbol1000"><polygon points="0,12.5 25,0 50,12.5 25,25"></polygon></symbol><symbol id="SvgjsSymbol1001"><polygon points="0,12.5 25,25 25,50 0,37.5"></polygon></symbol><symbol id="SvgjsSymbol1002"><polygon points="25,25 50,12.5 50,37.5 25,50"></polygon></symbol><g></g></svg>