<svg xmlns="http://www.w3.org/2000/svg" version="1.1" xmlns:xlink="http://www.w3.org/1999/xlink" viewBox="0 0 700 700" style="overflow: hidden; display: block;" width="700" height="700"><defs></defs><g id="two-0" transform="matrix(1 0 0 1 0 0)" opacity="1"><path transform="matrix(1 0 0 1 350 350)" id="two-2" d="M 277.333256 81.432391 C 255.725788 134.35127 135.297482 19.00529 104.699111 67.286033 C 72.103321 118.718476 242.922693 187.3639 196.83314 227.157553 C 150.423983 267.227152 111.622948 121.73626 51.103208 111.900418 C 39.57483 110.026793 26.184528 115.783941 17.819109 123.934631 C -18.731778 159.547304 11.365873 257.215505 -38.52484 267.946145 C -64.677407 273.571115 -82.533704 234.098658 -96.485929 211.274713 C -109.746551 189.582137 -99.212559 153.264018 -119.307256 137.687912 C -142.350609 119.826198 -181.29812 146.06494 -207.552119 133.385647 C -230.318749 122.390568 -260.767362 100.907361 -258.052172 75.770954 C -253.530746 33.912955 -188.706723 25.765095 -155.409648 0 C -141.526175 -10.742956 -116.7673 -16.150191 -114.086562 -33.498838 C -109.914977 -60.495648 -160.087607 -75.291722 -159.657339 -102.605542 C -159.371058 -120.778964 -138.360932 -132.742437 -127.903298 -147.608274 C -115.788666 -164.829583 -112.045695 -196.444221 -91.266786 -199.846384 C -62.985323 -204.476951 -49.962631 -147.12658 -21.33123 -148.36196 C 0.098317 -149.286596 11.336247 -177.160645 27.499268 -191.261611 C 60.079524 -219.685326 88.866534 -298.293131 126.52517 -277.051477 C 174.19897 -250.16069 62.683379 -155.042032 98.423038 -113.586242 C 115.913993 -93.297818 165.588314 -138.25158 179.575937 -115.406448 C 194.153372 -91.59801 135.556384 -68.587499 139.433167 -40.941273 C 142.054398 -22.248684 165.509568 -12.805907 179.376524 -0.000001 C 210.259061 28.519513 293.223837 42.514746 277.333256 81.432391 Z " fill="hsl(167, 9%, 91%)" stroke="undefined" stroke-width="1" stroke-opacity="1" fill-opacity="1" visibility="visible" stroke-linecap="butt" stroke-linejoin="miter" stroke-miterlimit="4"></path></g></svg>