<svg xmlns="http://www.w3.org/2000/svg" version="1.1" xmlns:xlink="http://www.w3.org/1999/xlink" xmlns:svgjs="http://svgjs.dev/svgjs" viewBox="0 0 800 800"><defs><linearGradient x1="50%" y1="0%" x2="50%" y2="100%" id="nnneon-grad"><stop stop-color="hsl(157, 100%, 54%)" stop-opacity="1" offset="0%"></stop><stop stop-color="hsl(331, 87%, 61%)" stop-opacity="1" offset="100%"></stop></linearGradient><filter id="nnneon-filter" x="-100%" y="-100%" width="400%" height="400%" filterUnits="objectBoundingBox" primitiveUnits="userSpaceOnUse" color-interpolation-filters="sRGB">
	<feGaussianBlur stdDeviation="6 0" x="0%" y="0%" width="100%" height="100%" in="SourceGraphic" edgeMode="none" result="blur"></feGaussianBlur></filter><filter id="nnneon-filter2" x="-100%" y="-100%" width="400%" height="400%" filterUnits="objectBoundingBox" primitiveUnits="userSpaceOnUse" color-interpolation-filters="sRGB">
	<feGaussianBlur stdDeviation="1 0" x="0%" y="0%" width="100%" height="100%" in="SourceGraphic" edgeMode="none" result="blur"></feGaussianBlur></filter></defs><g stroke-width="14.5" stroke="url(#nnneon-grad)" fill="none"><path d="M387.6832114312187 222.3586640542893C395.3048401975806 217.9591071775206 404.6951598024194 217.9591071775206 412.3167885687813 222.35989573314617L547.6832216551154 300.5136142386342C555.3048504214773 304.91317111540286 560.0000102238968 313.0459466073692 560.0000102238968 321.8462920397635V478.15372905073946C560.0000102238968 486.9540744831338 555.3048504214773 495.0868499751002 547.6832216551154 499.4876385307257L412.3167885687813 577.6413570362137C404.6951598024194 582.0409139129824 395.3048401975806 582.0409139129824 387.6832114312187 577.6401253573569L252.31677834488454 499.4864068518689C244.69514957852272 495.0868499751002 239.99998977610323 486.9540744831338 239.99998977610323 478.15372905073946V321.8462920397635C239.99998977610323 313.0459466073692 244.69514957852272 304.91317111540286 252.31677834488454 300.51238255977734L387.6832114312187 222.3586640542893Z " filter="url(#nnneon-filter)"></path><path d="M609.6832114312188 222.3586640542893C617.3048401975806 217.9591071775206 626.6951598024194 217.9591071775206 634.3167885687812 222.35989573314617L769.6832216551154 300.5136142386342C777.3048504214773 304.91317111540286 782.0000102238968 313.0459466073692 782.0000102238968 321.8462920397635V478.15372905073946C782.0000102238968 486.9540744831338 777.3048504214773 495.0868499751002 769.6832216551154 499.4876385307257L634.3167885687812 577.6413570362137C626.6951598024194 582.0409139129824 617.3048401975806 582.0409139129824 609.6832114312188 577.6401253573569L474.31677834488454 499.4864068518689C466.6951495785227 495.0868499751002 461.99998977610323 486.9540744831338 461.99998977610323 478.15372905073946V321.8462920397635C461.99998977610323 313.0459466073692 466.6951495785227 304.91317111540286 474.31677834488454 300.51238255977734L609.6832114312188 222.3586640542893Z " filter="url(#nnneon-filter2)" opacity="0.31"></path><path d="M165.6832114312187 222.3586640542893C173.30484019758057 217.9591071775206 182.69515980241943 217.9591071775206 190.3167885687813 222.35989573314617L325.6832216551154 300.5136142386342C333.30485042147734 304.91317111540286 338.00001022389677 313.0459466073692 338.00001022389677 321.8462920397635V478.15372905073946C338.00001022389677 486.9540744831338 333.30485042147734 495.0868499751002 325.6832216551154 499.4876385307257L190.3167885687813 577.6413570362137C182.69515980241943 582.0409139129824 173.30484019758057 582.0409139129824 165.6832114312187 577.6401253573569L30.31677834488454 499.4864068518689C22.695149578522717 495.0868499751002 17.999989776103234 486.9540744831338 17.999989776103234 478.15372905073946V321.8462920397635C17.999989776103234 313.0459466073692 22.695149578522717 304.91317111540286 30.31677834488454 300.51238255977734L165.6832114312187 222.3586640542893Z " filter="url(#nnneon-filter2)" opacity="0.31"></path><path d="M387.6832114312187 222.3586640542893C395.3048401975806 217.9591071775206 404.6951598024194 217.9591071775206 412.3167885687813 222.35989573314617L547.6832216551154 300.5136142386342C555.3048504214773 304.91317111540286 560.0000102238968 313.0459466073692 560.0000102238968 321.8462920397635V478.15372905073946C560.0000102238968 486.9540744831338 555.3048504214773 495.0868499751002 547.6832216551154 499.4876385307257L412.3167885687813 577.6413570362137C404.6951598024194 582.0409139129824 395.3048401975806 582.0409139129824 387.6832114312187 577.6401253573569L252.31677834488454 499.4864068518689C244.69514957852272 495.0868499751002 239.99998977610323 486.9540744831338 239.99998977610323 478.15372905073946V321.8462920397635C239.99998977610323 313.0459466073692 244.69514957852272 304.91317111540286 252.31677834488454 300.51238255977734L387.6832114312187 222.3586640542893Z "></path></g></svg>