<svg xmlns="http://www.w3.org/2000/svg" version="1.1" xmlns:xlink="http://www.w3.org/1999/xlink" xmlns:svgjs="http://svgjs.dev/svgjs" viewBox="0 0 800 800"><g fill="none" stroke-width="3" stroke="hsl(230, 55%, 40%)" stroke-linecap="round"><line x1="263" y1="400" x2="537" y2="400" transform="rotate(0, 400, 400)" opacity="0.36"></line><line x1="540" y1="400" x2="260" y2="400" transform="rotate(4, 400, 400)" opacity="0.94"></line><line x1="512.5" y1="400" x2="287.5" y2="400" transform="rotate(8, 400, 400)" opacity="0.66"></line><line x1="275" y1="400" x2="525" y2="400" transform="rotate(12, 400, 400)" opacity="0.75"></line><line x1="350" y1="400" x2="450" y2="400" transform="rotate(16, 400, 400)" opacity="0.33"></line><line x1="629" y1="400" x2="171" y2="400" transform="rotate(20, 400, 400)" opacity="0.73"></line><line x1="453" y1="400" x2="347" y2="400" transform="rotate(24, 400, 400)" opacity="0.54"></line><line x1="60" y1="400" x2="740" y2="400" transform="rotate(28, 400, 400)" opacity="0.77"></line><line x1="729.5" y1="400" x2="70.5" y2="400" transform="rotate(32, 400, 400)" opacity="0.25"></line><line x1="226" y1="400" x2="574" y2="400" transform="rotate(36, 400, 400)" opacity="0.70"></line><line x1="579" y1="400" x2="221" y2="400" transform="rotate(40, 400, 400)" opacity="0.97"></line><line x1="175" y1="400" x2="625" y2="400" transform="rotate(44, 400, 400)" opacity="0.88"></line><line x1="321.5" y1="400" x2="478.5" y2="400" transform="rotate(48, 400, 400)" opacity="0.94"></line><line x1="371.5" y1="400" x2="428.5" y2="400" transform="rotate(52, 400, 400)" opacity="0.59"></line><line x1="433" y1="400" x2="367" y2="400" transform="rotate(56, 400, 400)" opacity="0.49"></line><line x1="62" y1="400" x2="738" y2="400" transform="rotate(60, 400, 400)" opacity="0.62"></line><line x1="487.5" y1="400" x2="312.5" y2="400" transform="rotate(64, 400, 400)" opacity="0.18"></line><line x1="85.5" y1="400" x2="714.5" y2="400" transform="rotate(68, 400, 400)" opacity="0.75"></line><line x1="588.5" y1="400" x2="211.5" y2="400" transform="rotate(72, 400, 400)" opacity="0.64"></line><line x1="721" y1="400" x2="79" y2="400" transform="rotate(76, 400, 400)" opacity="0.13"></line><line x1="463.5" y1="400" x2="336.5" y2="400" transform="rotate(80, 400, 400)" opacity="0.39"></line><line x1="430.5" y1="400" x2="369.5" y2="400" transform="rotate(84, 400, 400)" opacity="0.91"></line><line x1="414" y1="400" x2="386" y2="400" transform="rotate(88, 400, 400)" opacity="0.86"></line><line x1="231" y1="400" x2="569" y2="400" transform="rotate(92, 400, 400)" opacity="0.36"></line><line x1="222" y1="400" x2="578" y2="400" transform="rotate(96, 400, 400)" opacity="0.37"></line><line x1="154.5" y1="400" x2="645.5" y2="400" transform="rotate(100, 400, 400)" opacity="0.53"></line><line x1="729.5" y1="400" x2="70.5" y2="400" transform="rotate(104, 400, 400)" opacity="0.58"></line><line x1="325.5" y1="400" x2="474.5" y2="400" transform="rotate(108, 400, 400)" opacity="0.38"></line><line x1="517" y1="400" x2="283" y2="400" transform="rotate(112, 400, 400)" opacity="0.93"></line><line x1="262.5" y1="400" x2="537.5" y2="400" transform="rotate(116, 400, 400)" opacity="0.72"></line><line x1="274" y1="400" x2="526" y2="400" transform="rotate(120, 400, 400)" opacity="0.94"></line><line x1="224.5" y1="400" x2="575.5" y2="400" transform="rotate(124, 400, 400)" opacity="0.84"></line><line x1="164.5" y1="400" x2="635.5" y2="400" transform="rotate(128, 400, 400)" opacity="0.33"></line><line x1="303" y1="400" x2="497" y2="400" transform="rotate(132, 400, 400)" opacity="0.84"></line><line x1="34.5" y1="400" x2="765.5" y2="400" transform="rotate(136, 400, 400)" opacity="0.87"></line><line x1="24" y1="400" x2="776" y2="400" transform="rotate(140, 400, 400)" opacity="0.51"></line><line x1="321" y1="400" x2="479" y2="400" transform="rotate(144, 400, 400)" opacity="0.74"></line><line x1="279.5" y1="400" x2="520.5" y2="400" transform="rotate(148, 400, 400)" opacity="0.42"></line><line x1="238.5" y1="400" x2="561.5" y2="400" transform="rotate(152, 400, 400)" opacity="0.48"></line><line x1="64.5" y1="400" x2="735.5" y2="400" transform="rotate(156, 400, 400)" opacity="0.08"></line><line x1="298.5" y1="400" x2="501.5" y2="400" transform="rotate(160, 400, 400)" opacity="1.00"></line><line x1="725" y1="400" x2="75" y2="400" transform="rotate(164, 400, 400)" opacity="0.62"></line><line x1="657.5" y1="400" x2="142.5" y2="400" transform="rotate(168, 400, 400)" opacity="0.48"></line><line x1="205" y1="400" x2="595" y2="400" transform="rotate(172, 400, 400)" opacity="0.71"></line><line x1="275" y1="400" x2="525" y2="400" transform="rotate(176, 400, 400)" opacity="0.23"></line><line x1="157.5" y1="400" x2="642.5" y2="400" transform="rotate(180, 400, 400)" opacity="0.24"></line><line x1="372.5" y1="400" x2="427.5" y2="400" transform="rotate(184, 400, 400)" opacity="0.99"></line><line x1="521.5" y1="400" x2="278.5" y2="400" transform="rotate(188, 400, 400)" opacity="0.43"></line><line x1="405" y1="400" x2="395" y2="400" transform="rotate(192, 400, 400)" opacity="0.70"></line><line x1="449" y1="400" x2="351" y2="400" transform="rotate(196, 400, 400)" opacity="0.71"></line><line x1="449" y1="400" x2="351" y2="400" transform="rotate(200, 400, 400)" opacity="0.19"></line><line x1="329.5" y1="400" x2="470.5" y2="400" transform="rotate(204, 400, 400)" opacity="0.63"></line><line x1="572" y1="400" x2="228" y2="400" transform="rotate(208, 400, 400)" opacity="0.30"></line><line x1="544.5" y1="400" x2="255.5" y2="400" transform="rotate(212, 400, 400)" opacity="0.88"></line><line x1="205.5" y1="400" x2="594.5" y2="400" transform="rotate(216, 400, 400)" opacity="0.20"></line><line x1="682" y1="400" x2="118" y2="400" transform="rotate(220, 400, 400)" opacity="0.72"></line><line x1="221.5" y1="400" x2="578.5" y2="400" transform="rotate(224, 400, 400)" opacity="0.10"></line><line x1="595.5" y1="400" x2="204.5" y2="400" transform="rotate(228, 400, 400)" opacity="0.93"></line><line x1="323.5" y1="400" x2="476.5" y2="400" transform="rotate(232, 400, 400)" opacity="0.96"></line><line x1="516" y1="400" x2="284" y2="400" transform="rotate(236, 400, 400)" opacity="0.39"></line><line x1="577" y1="400" x2="223" y2="400" transform="rotate(240, 400, 400)" opacity="0.48"></line><line x1="263" y1="400" x2="537" y2="400" transform="rotate(244, 400, 400)" opacity="0.95"></line><line x1="312.5" y1="400" x2="487.5" y2="400" transform="rotate(248, 400, 400)" opacity="0.28"></line><line x1="209.5" y1="400" x2="590.5" y2="400" transform="rotate(252, 400, 400)" opacity="0.84"></line><line x1="364" y1="400" x2="436" y2="400" transform="rotate(256, 400, 400)" opacity="0.45"></line><line x1="308.5" y1="400" x2="491.5" y2="400" transform="rotate(260, 400, 400)" opacity="0.37"></line><line x1="713" y1="400" x2="87" y2="400" transform="rotate(264, 400, 400)" opacity="0.74"></line><line x1="178.5" y1="400" x2="621.5" y2="400" transform="rotate(268, 400, 400)" opacity="0.82"></line><line x1="262.5" y1="400" x2="537.5" y2="400" transform="rotate(272, 400, 400)" opacity="0.92"></line><line x1="382" y1="400" x2="418" y2="400" transform="rotate(276, 400, 400)" opacity="0.65"></line><line x1="500" y1="400" x2="300" y2="400" transform="rotate(280, 400, 400)" opacity="0.48"></line><line x1="655" y1="400" x2="145" y2="400" transform="rotate(284, 400, 400)" opacity="0.68"></line><line x1="167.5" y1="400" x2="632.5" y2="400" transform="rotate(288, 400, 400)" opacity="0.32"></line><line x1="307.5" y1="400" x2="492.5" y2="400" transform="rotate(292, 400, 400)" opacity="0.58"></line><line x1="191.5" y1="400" x2="608.5" y2="400" transform="rotate(296, 400, 400)" opacity="0.80"></line><line x1="685" y1="400" x2="115" y2="400" transform="rotate(300, 400, 400)" opacity="0.73"></line><line x1="542" y1="400" x2="258" y2="400" transform="rotate(304, 400, 400)" opacity="0.84"></line><line x1="519" y1="400" x2="281" y2="400" transform="rotate(308, 400, 400)" opacity="0.75"></line><line x1="428.5" y1="400" x2="371.5" y2="400" transform="rotate(312, 400, 400)" opacity="0.97"></line><line x1="176.5" y1="400" x2="623.5" y2="400" transform="rotate(316, 400, 400)" opacity="0.62"></line><line x1="384" y1="400" x2="416" y2="400" transform="rotate(320, 400, 400)" opacity="0.59"></line><line x1="570" y1="400" x2="230" y2="400" transform="rotate(324, 400, 400)" opacity="0.37"></line><line x1="384" y1="400" x2="416" y2="400" transform="rotate(328, 400, 400)" opacity="0.09"></line><line x1="383" y1="400" x2="417" y2="400" transform="rotate(332, 400, 400)" opacity="0.72"></line><line x1="429" y1="400" x2="371" y2="400" transform="rotate(336, 400, 400)" opacity="0.44"></line><line x1="604" y1="400" x2="196" y2="400" transform="rotate(340, 400, 400)" opacity="0.68"></line><line x1="253.5" y1="400" x2="546.5" y2="400" transform="rotate(344, 400, 400)" opacity="0.61"></line><line x1="500.5" y1="400" x2="299.5" y2="400" transform="rotate(348, 400, 400)" opacity="0.09"></line></g></svg>