<svg xmlns="http://www.w3.org/2000/svg" version="1.1" xmlns:xlink="http://www.w3.org/1999/xlink" xmlns:svgjs="http://svgjs.dev/svgjs" viewBox="0 0 800 800" opacity="0.63"><g fill="none" stroke-width="13" stroke="hsl(230, 55%, 40%)" stroke-linecap="round" stroke-dasharray="0 5.5" transform="matrix(1.4,0,0,1.4,-160.00001068115228,-160.00000915527335)"><line x1="606.5" y1="400" x2="193.5" y2="400" transform="rotate(0, 400, 400)" opacity="0.32"></line><line x1="43.5" y1="400" x2="756.5" y2="400" transform="rotate(16, 400, 400)" opacity="0.18"></line><line x1="230" y1="400" x2="570" y2="400" transform="rotate(32, 400, 400)" opacity="0.94"></line><line x1="37" y1="400" x2="763" y2="400" transform="rotate(48, 400, 400)" opacity="0.57"></line><line x1="430.5" y1="400" x2="369.5" y2="400" transform="rotate(64, 400, 400)" opacity="0.75"></line><line x1="545.5" y1="400" x2="254.5" y2="400" transform="rotate(80, 400, 400)" opacity="0.47"></line><line x1="628.5" y1="400" x2="171.5" y2="400" transform="rotate(96, 400, 400)" opacity="0.23"></line><line x1="603" y1="400" x2="197" y2="400" transform="rotate(112, 400, 400)" opacity="0.85"></line><line x1="452.5" y1="400" x2="347.5" y2="400" transform="rotate(128, 400, 400)" opacity="0.87"></line><line x1="542.5" y1="400" x2="257.5" y2="400" transform="rotate(144, 400, 400)" opacity="0.54"></line><line x1="281.5" y1="400" x2="518.5" y2="400" transform="rotate(160, 400, 400)" opacity="0.71"></line><line x1="183.5" y1="400" x2="616.5" y2="400" transform="rotate(176, 400, 400)" opacity="0.95"></line><line x1="626" y1="400" x2="174" y2="400" transform="rotate(192, 400, 400)" opacity="0.43"></line><line x1="543" y1="400" x2="257" y2="400" transform="rotate(208, 400, 400)" opacity="0.19"></line><line x1="487" y1="400" x2="313" y2="400" transform="rotate(224, 400, 400)" opacity="0.20"></line><line x1="56" y1="400" x2="744" y2="400" transform="rotate(240, 400, 400)" opacity="0.68"></line><line x1="613" y1="400" x2="187" y2="400" transform="rotate(256, 400, 400)" opacity="0.43"></line><line x1="116" y1="400" x2="684" y2="400" transform="rotate(272, 400, 400)" opacity="0.86"></line><line x1="549.5" y1="400" x2="250.5" y2="400" transform="rotate(288, 400, 400)" opacity="0.44"></line><line x1="556.5" y1="400" x2="243.5" y2="400" transform="rotate(304, 400, 400)" opacity="0.28"></line><line x1="50" y1="400" x2="750" y2="400" transform="rotate(320, 400, 400)" opacity="0.51"></line><line x1="134.5" y1="400" x2="665.5" y2="400" transform="rotate(336, 400, 400)" opacity="0.63"></line></g></svg>