<svg xmlns="http://www.w3.org/2000/svg" version="1.1" xmlns:xlink="http://www.w3.org/1999/xlink" xmlns:svgjs="http://svgjs.dev/svgjs" viewBox="0 0 800 800"><g fill="none" stroke-width="3" stroke="hsl(335, 77%, 50%)" stroke-linecap="round"><line x1="527" y1="400" x2="273" y2="400" transform="rotate(0, 400, 400)" opacity="0.64"></line><line x1="398.5" y1="400" x2="401.5" y2="400" transform="rotate(4, 400, 400)" opacity="0.49"></line><line x1="185" y1="400" x2="615" y2="400" transform="rotate(8, 400, 400)" opacity="0.18"></line><line x1="561" y1="400" x2="239" y2="400" transform="rotate(12, 400, 400)" opacity="0.79"></line><line x1="629.5" y1="400" x2="170.5" y2="400" transform="rotate(16, 400, 400)" opacity="0.70"></line><line x1="524.5" y1="400" x2="275.5" y2="400" transform="rotate(20, 400, 400)" opacity="0.80"></line><line x1="112.5" y1="400" x2="687.5" y2="400" transform="rotate(24, 400, 400)" opacity="0.98"></line><line x1="345" y1="400" x2="455" y2="400" transform="rotate(28, 400, 400)" opacity="0.45"></line><line x1="226.5" y1="400" x2="573.5" y2="400" transform="rotate(32, 400, 400)" opacity="0.40"></line><line x1="343" y1="400" x2="457" y2="400" transform="rotate(36, 400, 400)" opacity="0.92"></line><line x1="595" y1="400" x2="205" y2="400" transform="rotate(40, 400, 400)" opacity="0.80"></line><line x1="439.5" y1="400" x2="360.5" y2="400" transform="rotate(44, 400, 400)" opacity="0.89"></line><line x1="622" y1="400" x2="178" y2="400" transform="rotate(48, 400, 400)" opacity="0.88"></line><line x1="241.5" y1="400" x2="558.5" y2="400" transform="rotate(52, 400, 400)" opacity="0.95"></line><line x1="391.5" y1="400" x2="408.5" y2="400" transform="rotate(56, 400, 400)" opacity="0.72"></line><line x1="297" y1="400" x2="503" y2="400" transform="rotate(60, 400, 400)" opacity="0.59"></line><line x1="402" y1="400" x2="398" y2="400" transform="rotate(64, 400, 400)" opacity="0.18"></line><line x1="388" y1="400" x2="412" y2="400" transform="rotate(68, 400, 400)" opacity="0.12"></line><line x1="216.5" y1="400" x2="583.5" y2="400" transform="rotate(72, 400, 400)" opacity="0.53"></line><line x1="546" y1="400" x2="254" y2="400" transform="rotate(76, 400, 400)" opacity="0.55"></line><line x1="632.5" y1="400" x2="167.5" y2="400" transform="rotate(80, 400, 400)" opacity="0.41"></line><line x1="724" y1="400" x2="76" y2="400" transform="rotate(84, 400, 400)" opacity="0.56"></line><line x1="383" y1="400" x2="417" y2="400" transform="rotate(88, 400, 400)" opacity="0.35"></line><line x1="144.5" y1="400" x2="655.5" y2="400" transform="rotate(92, 400, 400)" opacity="0.19"></line><line x1="579.5" y1="400" x2="220.5" y2="400" transform="rotate(96, 400, 400)" opacity="0.15"></line><line x1="123" y1="400" x2="677" y2="400" transform="rotate(100, 400, 400)" opacity="0.17"></line><line x1="718.5" y1="400" x2="81.5" y2="400" transform="rotate(104, 400, 400)" opacity="0.54"></line><line x1="451.5" y1="400" x2="348.5" y2="400" transform="rotate(108, 400, 400)" opacity="0.27"></line><line x1="303" y1="400" x2="497" y2="400" transform="rotate(112, 400, 400)" opacity="0.36"></line><line x1="33" y1="400" x2="767" y2="400" transform="rotate(116, 400, 400)" opacity="0.94"></line><line x1="165" y1="400" x2="635" y2="400" transform="rotate(120, 400, 400)" opacity="0.17"></line><line x1="624.5" y1="400" x2="175.5" y2="400" transform="rotate(124, 400, 400)" opacity="0.50"></line><line x1="240" y1="400" x2="560" y2="400" transform="rotate(128, 400, 400)" opacity="0.27"></line><line x1="600.5" y1="400" x2="199.5" y2="400" transform="rotate(132, 400, 400)" opacity="0.15"></line><line x1="670.5" y1="400" x2="129.5" y2="400" transform="rotate(136, 400, 400)" opacity="0.48"></line><line x1="221" y1="400" x2="579" y2="400" transform="rotate(140, 400, 400)" opacity="0.46"></line><line x1="307.5" y1="400" x2="492.5" y2="400" transform="rotate(144, 400, 400)" opacity="0.67"></line><line x1="395" y1="400" x2="405" y2="400" transform="rotate(148, 400, 400)" opacity="0.83"></line><line x1="555.5" y1="400" x2="244.5" y2="400" transform="rotate(152, 400, 400)" opacity="0.49"></line><line x1="106.5" y1="400" x2="693.5" y2="400" transform="rotate(156, 400, 400)" opacity="0.72"></line><line x1="623" y1="400" x2="177" y2="400" transform="rotate(160, 400, 400)" opacity="0.24"></line><line x1="405.5" y1="400" x2="394.5" y2="400" transform="rotate(164, 400, 400)" opacity="0.15"></line><line x1="408.5" y1="400" x2="391.5" y2="400" transform="rotate(168, 400, 400)" opacity="0.99"></line><line x1="640.5" y1="400" x2="159.5" y2="400" transform="rotate(172, 400, 400)" opacity="0.23"></line><line x1="636.5" y1="400" x2="163.5" y2="400" transform="rotate(176, 400, 400)" opacity="0.39"></line><line x1="128.5" y1="400" x2="671.5" y2="400" transform="rotate(180, 400, 400)" opacity="0.07"></line><line x1="412.5" y1="400" x2="387.5" y2="400" transform="rotate(184, 400, 400)" opacity="0.51"></line><line x1="135.5" y1="400" x2="664.5" y2="400" transform="rotate(188, 400, 400)" opacity="0.52"></line><line x1="450" y1="400" x2="350" y2="400" transform="rotate(192, 400, 400)" opacity="0.39"></line><line x1="101.5" y1="400" x2="698.5" y2="400" transform="rotate(196, 400, 400)" opacity="0.81"></line><line x1="288.5" y1="400" x2="511.5" y2="400" transform="rotate(200, 400, 400)" opacity="0.88"></line><line x1="636.5" y1="400" x2="163.5" y2="400" transform="rotate(204, 400, 400)" opacity="0.85"></line><line x1="188" y1="400" x2="612" y2="400" transform="rotate(208, 400, 400)" opacity="0.55"></line><line x1="720.5" y1="400" x2="79.5" y2="400" transform="rotate(212, 400, 400)" opacity="0.56"></line><line x1="314.5" y1="400" x2="485.5" y2="400" transform="rotate(216, 400, 400)" opacity="0.62"></line><line x1="582.5" y1="400" x2="217.5" y2="400" transform="rotate(220, 400, 400)" opacity="0.52"></line><line x1="712.5" y1="400" x2="87.5" y2="400" transform="rotate(224, 400, 400)" opacity="0.11"></line><line x1="86.5" y1="400" x2="713.5" y2="400" transform="rotate(228, 400, 400)" opacity="0.79"></line><line x1="127" y1="400" x2="673" y2="400" transform="rotate(232, 400, 400)" opacity="0.91"></line><line x1="122.5" y1="400" x2="677.5" y2="400" transform="rotate(236, 400, 400)" opacity="0.83"></line><line x1="593.5" y1="400" x2="206.5" y2="400" transform="rotate(240, 400, 400)" opacity="0.68"></line><line x1="569" y1="400" x2="231" y2="400" transform="rotate(244, 400, 400)" opacity="0.83"></line><line x1="492.5" y1="400" x2="307.5" y2="400" transform="rotate(248, 400, 400)" opacity="0.68"></line><line x1="259" y1="400" x2="541" y2="400" transform="rotate(252, 400, 400)" opacity="0.91"></line><line x1="106" y1="400" x2="694" y2="400" transform="rotate(256, 400, 400)" opacity="0.65"></line><line x1="55.5" y1="400" x2="744.5" y2="400" transform="rotate(260, 400, 400)" opacity="0.32"></line><line x1="534.5" y1="400" x2="265.5" y2="400" transform="rotate(264, 400, 400)" opacity="0.10"></line><line x1="436" y1="400" x2="364" y2="400" transform="rotate(268, 400, 400)" opacity="0.31"></line><line x1="87.5" y1="400" x2="712.5" y2="400" transform="rotate(272, 400, 400)" opacity="0.75"></line><line x1="610.5" y1="400" x2="189.5" y2="400" transform="rotate(276, 400, 400)" opacity="0.24"></line><line x1="55.5" y1="400" x2="744.5" y2="400" transform="rotate(280, 400, 400)" opacity="0.84"></line><line x1="304" y1="400" x2="496" y2="400" transform="rotate(284, 400, 400)" opacity="0.65"></line><line x1="622.5" y1="400" x2="177.5" y2="400" transform="rotate(288, 400, 400)" opacity="0.92"></line><line x1="277.5" y1="400" x2="522.5" y2="400" transform="rotate(292, 400, 400)" opacity="0.99"></line><line x1="439" y1="400" x2="361" y2="400" transform="rotate(296, 400, 400)" opacity="0.77"></line><line x1="550" y1="400" x2="250" y2="400" transform="rotate(300, 400, 400)" opacity="0.68"></line><line x1="444.5" y1="400" x2="355.5" y2="400" transform="rotate(304, 400, 400)" opacity="0.92"></line><line x1="191" y1="400" x2="609" y2="400" transform="rotate(308, 400, 400)" opacity="0.25"></line><line x1="182.5" y1="400" x2="617.5" y2="400" transform="rotate(312, 400, 400)" opacity="0.44"></line><line x1="424" y1="400" x2="376" y2="400" transform="rotate(316, 400, 400)" opacity="0.28"></line><line x1="543" y1="400" x2="257" y2="400" transform="rotate(320, 400, 400)" opacity="0.91"></line><line x1="338" y1="400" x2="462" y2="400" transform="rotate(324, 400, 400)" opacity="0.96"></line><line x1="463" y1="400" x2="337" y2="400" transform="rotate(328, 400, 400)" opacity="0.47"></line><line x1="437.5" y1="400" x2="362.5" y2="400" transform="rotate(332, 400, 400)" opacity="0.67"></line><line x1="263" y1="400" x2="537" y2="400" transform="rotate(336, 400, 400)" opacity="0.95"></line><line x1="165" y1="400" x2="635" y2="400" transform="rotate(340, 400, 400)" opacity="0.18"></line><line x1="340" y1="400" x2="460" y2="400" transform="rotate(344, 400, 400)" opacity="0.11"></line><line x1="264" y1="400" x2="536" y2="400" transform="rotate(348, 400, 400)" opacity="0.67"></line></g></svg>